<?xml version="1.0" encoding="UTF-8"?>
<svg id="Layer_1" xmlns="http://www.w3.org/2000/svg" version="1.1" viewBox="0 0 800 800">
  <!-- Generator: Adobe Illustrator 29.5.1, SVG Export Plug-In . SVG Version: 2.1.0 Build 141)  -->
  <defs>
    <style>
      .st0 {
        fill: #fff;
      }

      .st1 {
        fill: #26e5ea;
        fill-rule: evenodd;
      }
    </style>
  </defs>
  <rect class="st0" x="210" y="183" width="427" height="443"/>
  <path class="st1" d="M267.65,15.26c86.72-20.34,176.97-20.34,263.69,0,125.23,29.38,223.02,127.16,252.39,252.4,20.34,86.72,20.34,176.97,0,263.69-29.38,125.23-127.16,223.02-252.39,252.39-86.72,20.34-176.97,20.34-263.69,0-125.24-29.38-223.02-127.16-252.4-252.39-20.34-86.72-20.34-176.97,0-263.69C44.63,142.42,142.42,44.63,267.65,15.26ZM424.99,272.02c0-14.08-11.41-25.5-25.49-25.5s-25.5,11.42-25.5,25.5v212.46c0,14.08,11.42,25.49,25.5,25.49s25.49-11.41,25.49-25.49v-212.46ZM297.52,357.01c0-14.08-11.42-25.5-25.5-25.5s-25.5,11.42-25.5,25.5v169.97c0,14.08,11.42,25.49,25.5,25.49s25.5-11.41,25.5-25.49v-169.97ZM552.47,399.5c0-14.08-11.41-25.5-25.5-25.5s-25.49,11.42-25.49,25.5v127.48c0,14.08,11.41,25.49,25.49,25.49s25.5-11.41,25.5-25.49v-127.48Z"/>
</svg>